<?xml version="1.0" standalone="no"?>
<!DOCTYPE svg PUBLIC "-//W3C//DTD SVG 20010904//EN"
 "http://www.w3.org/TR/2001/REC-SVG-20010904/DTD/svg10.dtd">
<svg version="1.0" xmlns="http://www.w3.org/2000/svg"
 width="512.000000pt" height="512.000000pt" viewBox="0 0 512.000000 512.000000"
 preserveAspectRatio="xMidYMid meet">
<metadata>
Created by potrace 1.14, written by Peter Selinger 2001-2017
</metadata>
<g transform="translate(0.000000,512.000000) scale(0.100000,-0.100000)"
fill="#000000" stroke="none">
<path d="M2378 5115 c-2 -1 -39 -5 -82 -9 -44 -4 -82 -8 -85 -10 -3 -2 -31 -7
-61 -11 -30 -3 -75 -11 -100 -17 -25 -5 -56 -12 -70 -14 -52 -10 -236 -66
-326 -100 -412 -154 -826 -454 -1084 -784 -19 -25 -37 -47 -40 -50 -7 -7 -45
-61 -105 -150 -176 -260 -312 -589 -374 -905 -40 -200 -46 -267 -45 -515 0
-183 3 -241 19 -345 3 -16 7 -43 9 -60 37 -265 165 -623 307 -860 10 -16 27
-46 38 -65 19 -36 131 -195 166 -239 162 -197 306 -337 489 -475 321 -240 732
-415 1112 -471 22 -4 50 -8 64 -11 105 -19 490 -26 628 -11 821 89 1551 575
1961 1304 163 291 275 643 308 973 12 118 9 506 -5 600 -98 663 -406 1223
-902 1636 -387 322 -828 513 -1340 578 -87 11 -472 20 -482 11z"/>
</g>
</svg>
